{
  "asset": {
    "version": "2.0",
    "generator": "ModelConverterX"
  },
  "scene": 0,
  "scenes": [
    {
      "nodes": [
        0
      ]
    }
  ],
  "nodes": [
    {
      "name": "node0",
      "children": [
        1
      ]
    },
    {
      "name": "node1",
      "mesh": 0
    }
  ],
  "meshes": [
    {
      "primitives": [
        {
          "attributes": {
            "POSITION": 0,
            "NORMAL": 1,
            "TEXCOORD_0": 2
          },
          "indices": 3,
          "mode": 4,
          "material": 0
        }
      ],
      "name": "part000"
    }
  ],
  "accessors": [
    {
      "bufferView": 1,
      "byteOffset": 0,
      "componentType": 5126,
      "count": 4931,
      "type": "VEC3",
      "min": [
        2.59617,
        -1.89269,
        -2.25507
      ],
      "max": [
        13.53658,
        7.41967,
        -0.4867
      ]
    },
    {
      "bufferView": 2,
      "byteOffset": 0,
      "componentType": 5126,
      "count": 4931,
      "type": "VEC3"
    },
    {
      "bufferView": 3,
      "byteOffset": 0,
      "componentType": 5126,
      "count": 4931,
      "type": "VEC2"
    },
    {
      "bufferView": 0,
      "byteOffset": 0,
      "componentType": 5125,
      "count": 14460,
      "type": "SCALAR"
    }
  ],
  "materials": [
    {
      "pbrMetallicRoughness": {
        "baseColorFactor": [
          1.0,
          1.0,
          1.0,
          1.0
        ],
        "roughnessFactor": 1.0,
        "metallicFactor": 0.0,
        "baseColorTexture": {
          "index": 0
        }
      },
      "emissiveFactor": [
        0.0,
        0.0,
        0.0
      ]
    }
  ],
  "textures": [
    {
      "source": 0,
      "name": "nessie_0"
    }
  ],
  "images": [
    {
      "uri": "nessie_0.png"
    }
  ],
  "bufferViews": [
    {
      "buffer": 0,
      "byteOffset": 0,
      "byteLength": 57840
    },
    {
      "buffer": 0,
      "byteOffset": 57840,
      "byteLength": 59172,
      "byteStride": 12
    },
    {
      "buffer": 0,
      "byteOffset": 117012,
      "byteLength": 59172,
      "byteStride": 12
    },
    {
      "buffer": 0,
      "byteOffset": 176184,
      "byteLength": 39448,
      "byteStride": 8
    }
  ],
  "buffers": [
    {
      "byteLength": 215632,
      "uri": "nessie.bin"
    }
  ]
}